<svg t="1766211214021" class="icon" viewBox="0 0 1024 1024" version="1.1" xmlns="http://www.w3.org/2000/svg" p-id="1660" width="1024" height="1024">
  <rect width="1024" height="1024" rx="200" fill="#F6A950" />
  <path d="M273.792 323.797333C251.178667 334.634667 224.853333 341.333333 192 341.333333c-33.664 0-60.330667-6.570667-83.114667-17.578666-21.290667-10.325333-37.546667-23.850667-49.792-34.090667l-1.066666-0.853333a42.666667 42.666667 0 1 1 54.613333-65.578667c13.226667 11.008 22.272 18.304 33.408 23.68C156.330667 251.904 170.24 256 192 256c20.48 0 34.133333-3.968 44.885333-9.130667 11.605333-5.546667 21.333333-13.184 35.114667-24.192l1.109333-0.853333c12.757333-10.24 29.312-23.466667 50.432-33.621333C346.154667 177.365333 372.48 170.666667 405.333333 170.666667c33.664 0 60.330667 6.570667 83.114667 17.578666 21.290667 10.325333 37.546667 23.850667 49.792 34.090667l1.066667 0.853333c13.226667 11.050667 22.272 18.346667 33.408 23.722667 10.282667 4.992 24.149333 9.088 45.952 9.088 20.48 0 34.133333-3.968 44.885333-9.130667 11.605333-5.546667 21.333333-13.184 35.114667-24.192l1.109333-0.853333c12.757333-10.24 29.354667-23.466667 50.432-33.621333C772.821333 177.365333 799.146667 170.666667 832 170.666667c33.664 0 60.330667 6.570667 83.114667 17.578666 21.290667 10.325333 37.546667 23.850667 49.792 34.090667l1.066666 0.853333a42.666667 42.666667 0 1 1-54.613333 65.578667c-13.226667-11.008-22.229333-18.304-33.408-23.68C867.669333 260.096 853.802667 256 832 256c-20.48 0-34.133333 3.968-44.885333 9.130667-11.605333 5.546667-21.333333 13.184-35.114667 24.192l-1.109333 0.853333c-12.757333 10.24-29.312 23.466667-50.432 33.621333-22.613333 10.837333-48.938667 17.536-81.792 17.536-33.664 0-60.330667-6.570667-83.114667-17.578666-21.290667-10.325333-37.546667-23.850667-49.792-34.090667l-1.066667-0.853333c-13.226667-11.050667-22.229333-18.346667-33.408-23.722667C441.002667 260.096 427.136 256 405.333333 256c-20.48 0-34.133333 3.968-44.885333 9.130667-11.605333 5.546667-21.333333 13.184-35.114667 24.192l-1.109333 0.853333c-12.757333 10.24-29.312 23.466667-50.432 33.621333zM273.792 579.797333C251.178667 590.634667 224.853333 597.333333 192 597.333333c-33.664 0-60.330667-6.570667-83.114667-17.578666-21.290667-10.325333-37.546667-23.850667-49.792-34.090667l-1.066666-0.853333a42.666667 42.666667 0 1 1 54.613333-65.578667c13.226667 11.008 22.272 18.304 33.408 23.68 10.282667 4.992 24.149333 9.088 45.952 9.088 20.48 0 34.133333-3.968 44.885333-9.130667 11.605333-5.546667 21.333333-13.184 35.114667-24.192l1.109333-0.853333c12.757333-10.24 29.312-23.466667 50.432-33.621333C346.154667 433.365333 372.48 426.666667 405.333333 426.666667c33.664 0 60.330667 6.570667 83.114667 17.578666 21.290667 10.325333 37.546667 23.850667 49.792 34.090667l1.066667 0.853333c13.226667 11.050667 22.272 18.346667 33.408 23.722667 10.282667 4.992 24.149333 9.088 45.952 9.088 20.48 0 34.133333-3.968 44.885333-9.130667 11.605333-5.546667 21.333333-13.184 35.114667-24.192l1.109333-0.853333c12.757333-10.24 29.354667-23.466667 50.432-33.621333 22.613333-10.837333 48.938667-17.536 81.792-17.536 33.664 0 60.330667-6.570667 83.114667 17.578666 21.290667 10.325333 37.546667 23.850667 49.792 34.090667l1.066666 0.853333a42.666667 42.666667 0 1 1-54.613333 65.578667c-13.226667-11.008-22.229333-18.304-33.408-23.68-10.282667-4.992-24.149333-9.088-45.952-9.088-20.48 0-34.133333 3.968-44.885333 9.130667-11.605333 5.546667-21.333333 13.184-35.114667 24.192l-1.109333 0.853333c-12.757333 10.24-29.312 23.466667-50.432 33.621333-22.613333 10.837333-48.938667-17.536-81.792 17.536-33.664 0-60.330667-6.570667-83.114667-17.578666-21.290667-10.325333-37.546667-23.850667-49.792-34.090667l-1.066667-0.853333c-13.226667-11.050667-22.229333-18.346667-33.408-23.722667-10.282667-4.992-24.149333-9.088-45.952-9.088-20.48 0-34.133333 3.968-44.885333 9.130667-11.605333 5.546667-21.333333 13.184-35.114667 24.192l-1.109333 0.853333c-12.757333 10.24-29.312 23.466667-50.432 33.621333zM273.792 835.797333C251.178667 846.634667 224.853333 853.333333 192 853.333333c-33.664 0-60.330667-6.570667-83.114667-17.578666-21.290667-10.325333-37.546667-23.850667-49.792-34.090667l-1.066666-0.853333a42.666667 42.666667 0 1 1 54.613333-65.578667c13.226667 11.008 22.272 18.304 33.408 23.68 10.282667 4.992 24.149333 9.088 45.952 9.088 20.48 0 34.133333-3.968 44.885333-9.130667 11.605333-5.546667 21.333333-13.184 35.114667-24.192l1.109333-0.853333c12.757333-10.24 29.312-23.466667 50.432-33.621333C346.154667 689.365333 372.48 682.666667 405.333333 682.666667c33.664 0 60.330667 6.570667 83.114667 17.578666 21.290667 10.325333 37.546667 23.850667 49.792 34.090667l1.066667 0.853333c13.226667 11.050667 22.272 18.346667 33.408 23.722667 10.282667 4.992 24.149333 9.088 45.952 9.088 20.48 0 34.133333-3.968 44.885333-9.130667 11.605333-5.546667 21.333333-13.184 35.114667-24.192l1.109333-0.853333c12.757333-10.24 29.354667-23.466667 50.432-33.621333 22.613333-10.837333 48.938667-17.536 81.792-17.536 33.664 0 60.330667-6.570667 83.114667 17.578666 21.290667 10.325333 37.546667 23.850667 49.792 34.090667l1.066666 0.853333a42.666667 42.666667 0 1 1-54.613333 65.578667c-13.226667-11.008-22.229333-18.304-33.408-23.68-10.282667-4.992-24.149333-9.088-45.952-9.088-20.48 0-34.133333 3.968-44.885333 9.130667-11.605333 5.546667-21.333333 13.184-35.114667 24.192l-1.109333 0.853333c-12.757333 10.24-29.312 23.466667-50.432 33.621333-22.613333 10.837333-48.938667 17.536-81.792 17.536-33.664 0-60.330667-6.570667-83.114667-17.578666-21.290667-10.325333-37.546667-23.850667-49.792-34.090667a1164.714667 1164.714667 0 0 0-1.066667-0.853333c-13.226667-11.050667-22.229333-18.346667-33.408-23.722667-10.282667-4.992-24.149333-9.088-45.952-9.088-20.48 0-34.133333 3.968-44.885333 9.130667-11.605333 5.546667-21.333333 13.184-35.114667 24.192l-1.109333 0.853333c-12.757333 10.24-29.312 23.466667-50.432 33.621333z" p-id="1661"></path>
</svg>